ModelForces
version=1
nRows=4
nColumns=155
inDegrees=no

This file contains the forces exerted on a model during a simulation.

A force is a generalized force, meaning that it can be either a force (N) or a torque (Nm).

Units are S.I. units (second, meters, Newtons, ...)
Angles are in degrees.

endheader
time	glut_med1_r	glut_med2_r	glut_med3_r	glut_min1_r	glut_min2_r	glut_min3_r	semimem_r	semiten_r	bifemlh_r	bifemsh_r	sar_r	add_long_r	add_brev_r	add_mag1_r	add_mag2_r	add_mag3_r	tfl_r	pect_r	grac_r	glut_max1_r	glut_max2_r	glut_max3_r	iliacus_r	psoas_r	quad_fem_r	gem_r	peri_r	rect_fem_r	vas_med_r	vas_int_r	vas_lat_r	med_gas_r	lat_gas_r	soleus_r	tib_post_r	flex_dig_r	flex_hal_r	tib_ant_r	per_brev_r	per_long_r	per_tert_r	ext_dig_r	ext_hal_r	glut_med1_l	glut_med2_l	glut_med3_l	glut_min1_l	glut_min2_l	glut_min3_l	semimem_l	semiten_l	bifemlh_l	bifemsh_l	sar_l	add_long_l	add_brev_l	add_mag1_l	add_mag2_l	add_mag3_l	tfl_l	pect_l	grac_l	glut_max1_l	glut_max2_l	glut_max3_l	iliacus_l	psoas_l	quad_fem_l	gem_l	peri_l	rect_fem_l	vas_med_l	vas_int_l	vas_lat_l	med_gas_l	lat_gas_l	soleus_l	tib_post_l	flex_dig_l	flex_hal_l	tib_ant_l	per_brev_l	per_long_l	per_tert_l	ext_dig_l	ext_hal_l	ercspn_r	ercspn_l	intobl_r	intobl_l	extobl_r	extobl_l	femur_lat_meniscii_r.femur_lat_r.force.X	femur_lat_meniscii_r.femur_lat_r.force.Y	femur_lat_meniscii_r.femur_lat_r.force.Z	femur_lat_meniscii_r.femur_lat_r.torque.X	femur_lat_meniscii_r.femur_lat_r.torque.Y	femur_lat_meniscii_r.femur_lat_r.torque.Z	femur_lat_meniscii_r.meniscus_lat_r.force.X	femur_lat_meniscii_r.meniscus_lat_r.force.Y	femur_lat_meniscii_r.meniscus_lat_r.force.Z	femur_lat_meniscii_r.meniscus_lat_r.torque.X	femur_lat_meniscii_r.meniscus_lat_r.torque.Y	femur_lat_meniscii_r.meniscus_lat_r.torque.Z	femur_med_meniscii_r.femur_med_r.force.X	femur_med_meniscii_r.femur_med_r.force.Y	femur_med_meniscii_r.femur_med_r.force.Z	femur_med_meniscii_r.femur_med_r.torque.X	femur_med_meniscii_r.femur_med_r.torque.Y	femur_med_meniscii_r.femur_med_r.torque.Z	femur_med_meniscii_r.meniscus_med_r.force.X	femur_med_meniscii_r.meniscus_med_r.force.Y	femur_med_meniscii_r.meniscus_med_r.force.Z	femur_med_meniscii_r.meniscus_med_r.torque.X	femur_med_meniscii_r.meniscus_med_r.torque.Y	femur_med_meniscii_r.meniscus_med_r.torque.Z	femur_med_tibia_r.tibia_upper_r.force.X	femur_med_tibia_r.tibia_upper_r.force.Y	femur_med_tibia_r.tibia_upper_r.force.Z	femur_med_tibia_r.tibia_upper_r.torque.X	femur_med_tibia_r.tibia_upper_r.torque.Y	femur_med_tibia_r.tibia_upper_r.torque.Z	femur_med_tibia_r.femur_med_r.force.X	femur_med_tibia_r.femur_med_r.force.Y	femur_med_tibia_r.femur_med_r.force.Z	femur_med_tibia_r.femur_med_r.torque.X	femur_med_tibia_r.femur_med_r.torque.Y	femur_med_tibia_r.femur_med_r.torque.Z	femur_lat_tibia_r.tibia_upper_r.force.X	femur_lat_tibia_r.tibia_upper_r.force.Y	femur_lat_tibia_r.tibia_upper_r.force.Z	femur_lat_tibia_r.tibia_upper_r.torque.X	femur_lat_tibia_r.tibia_upper_r.torque.Y	femur_lat_tibia_r.tibia_upper_r.torque.Z	femur_lat_tibia_r.femur_lat_r.force.X	femur_lat_tibia_r.femur_lat_r.force.Y	femur_lat_tibia_r.femur_lat_r.force.Z	femur_lat_tibia_r.femur_lat_r.torque.X	femur_lat_tibia_r.femur_lat_r.torque.Y	femur_lat_tibia_r.femur_lat_r.torque.Z	aACL_R	pACL_R	aPCL_R	pPCL_R	aMCL_R	mMCL_R	pMCL_R	aLCL_R	mLCL_R	pLCL_R	aPCL_L	pPCL_L	aMCL_L	aLCL_L
      0.20953551	      9.71466574	      7.14994623	      7.67561841	      3.32252886	      3.89938753	      4.10726587	      0.00000000	    163.59252740	    181.52735894	    341.00262683	    122.29600752	      7.10317750	      5.16395474	      3.67788054	      3.10898525	      5.17291650	      3.26977429	      2.80156457	     92.56242186	      4.61443765	      7.01707438	      5.25988034	     25.35114683	     16.02734769	      4.55400522	      3.29473715	      5.57264090	    112.15540340	     40.56141986	     31.84060682	     56.11787725	      0.00000000	      0.00000000	      0.00000000	      0.00000000	      0.00000000	      0.00000000	     35.33138777	      1.55243281	      3.48095192	     23.44959304	     49.37103432	     11.75956448	      9.71466574	      7.14994623	      7.67561841	      3.32252886	      3.89938753	      4.10726587	     10.58621582	      5.24379293	     10.26199155	      9.06272392	      1.89707210	      7.10317750	      5.16395474	      3.67788054	      3.10898525	      5.17291650	      4.83112576	      2.80156457	      1.95329288	      4.61443765	      7.01707438	      5.25988034	     25.35114683	     16.02734769	      4.55400522	      3.29473715	      5.57264090	     14.20241802	      0.00000000	      0.00000000	      0.00000000	     19.33180284	      9.03095500	     42.98507604	     47.27720322	      4.17769302	      3.63875899	     11.12845584	      5.88846096	     15.83111890	      2.47919543	      7.87094867	      2.52100783	     31.26342721	     31.26342721	     11.47415175	     11.47415175	     29.03007163	     29.03007163	    183.80278799	    110.19256832	      8.56486440	     -5.92865316	      4.25869527	     73.01729506	   -183.80278799	   -110.19256832	     -8.56486440	      2.83562749	     -4.96531792	      2.45048533	      0.03911275	      0.00109248	     -0.02459325	      0.00979331	     -0.00060891	      0.01554767	     -0.03911275	     -0.00109248	      0.02459325	     -0.00009232	      0.00117447	     -0.00009423	   -885.67606934	   -366.58953710	    313.99900945	     -8.28180522	     21.80654713	      2.27141662	    885.67606934	    366.58953710	   -313.99900945	    133.05143624	    -15.58288365	    356.92400404	   -288.61708070	   -129.67956131	    -77.69102012	      4.19766654	     -9.91532894	      0.95623826	    288.61708070	    129.67956131	     77.69102012	    -34.49979054	      7.06464921	    116.37244980	      1.07716650	      0.00000000	    962.37916043	    607.96361926	     24.47425686	     10.60485305	      0.00000000	      0.00000000	      0.00000000	      0.00000000	      0.00000000	      0.00000000	      0.00000001	      0.00000000
      0.20970619	      9.70982250	      7.14663686	      7.67202177	      3.32105575	      3.89778273	      4.10521831	      0.00000000	    163.68813702	    181.71488652	    341.18999996	    122.30516453	      7.09985100	      5.16168649	      3.67619061	      3.10752014	      5.17025970	      3.26880407	      2.80031388	     92.58661566	      4.61229742	      7.01381120	      5.25739268	     25.34509048	     16.02045929	      4.55194164	      3.29374419	      5.56998633	    113.82444304	     40.60303001	     31.84003141	     56.16482789	      0.00000000	      0.00000000	      0.00000000	      0.00000000	      0.00000000	      0.00000000	     35.33018314	      1.53830048	      3.46381186	     23.40782977	     49.29048845	     11.73699226	      9.70982250	      7.14663686	      7.67202177	      3.32105575	      3.89778273	      4.10521831	     10.58903745	      5.24119432	     10.25635990	      9.05861343	      1.89623492	      7.09985100	      5.16168649	      3.67619061	      3.10752014	      5.17025970	      4.82948152	      2.80031388	      1.95241565	      4.61229742	      7.01381120	      5.25739268	     25.34509048	     16.02045929	      4.55194164	      3.29374419	      5.56998633	     14.19458873	      0.00000000	      0.00000000	      0.00000000	     19.32364802	      9.02691205	     42.96087043	     47.26659920	      4.17259059	      3.63421166	     11.12251375	      5.88508257	     15.82416131	      2.47813251	      7.86854827	      2.52029854	     31.24953432	     31.24953432	     11.46861842	     11.46861842	     29.02508303	     29.02508303	    183.15250441	    110.07743581	      8.79641769	     -6.02117320	      4.24590162	     72.74944615	   -183.15250441	   -110.07743581	     -8.79641769	      2.83677672	     -4.95816771	      2.46692473	      0.03784586	      0.00113933	     -0.02373611	      0.00945249	     -0.00058866	      0.01504280	     -0.03784586	     -0.00113933	      0.02373611	     -0.00008856	      0.00113447	     -0.00008636	   -886.28423089	   -365.62403735	    314.39229954	     -8.25461904	     21.82294197	      2.28315057	    886.28423089	    365.62403735	   -314.39229954	    133.18947299	    -15.58929534	    357.16255520	   -289.16903930	   -129.05415381	    -77.87837425	      4.18180294	     -9.93863197	      0.94317114	    289.16903930	    129.05415381	     77.87837425	    -34.56147149	      7.07872909	    116.59834155	      0.90793389	      0.00000000	    963.70117409	    608.97706657	     24.33492546	     10.52225258	      0.00000000	      0.00000000	      0.00000000	      0.00000000	      0.00000000	      0.00000000	      0.00000001	      0.00000000
      0.20976316	      9.70820840	      7.14553397	      7.67082315	      3.32056481	      3.89724790	      4.10453594	      0.00000000	    163.71945557	    181.77600116	    341.24525830	    122.30715723	      7.09874240	      5.16093054	      3.67562740	      3.10703187	      5.16937429	      3.26847863	      2.79989707	     92.59392124	      4.61158417	      7.01272371	      5.25656363	     25.34307214	     16.01816368	      4.55125392	      3.29341328	      5.56910082	    113.99022832	     40.61615532	     31.85782610	     56.17948128	      0.00000000	      0.00000000	      0.00000000	      0.00000000	      0.00000000	      0.00000000	     35.32993361	      1.53356585	      3.45802017	     23.39389063	     49.26382600	     11.72953776	      9.70820840	      7.14553397	      7.67082315	      3.32056481	      3.89724790	      4.10453594	     10.58995983	      5.24032830	     10.25448288	      9.05724355	      1.89595592	      7.09874240	      5.16093054	      3.67562740	      3.10703187	      5.16937429	      4.82893355	      2.79989707	      1.95212330	      4.61158417	      7.01272371	      5.25656363	     25.34307214	     16.01816368	      4.55125392	      3.29341328	      5.56910082	     14.19197945	      0.00000000	      0.00000000	      0.00000000	     19.32092648	      9.02556303	     42.95280099	     47.26306489	      4.17088951	      3.63269629	     11.12053340	      5.88395658	     15.82184210	      2.47777829	      7.86774660	      2.52006140	     31.24490426	     31.24490426	     11.46677437	     11.46677437	     29.02342054	     29.02342054	    183.07322991	    110.22881990	      8.82581904	     -6.03646452	      4.24350986	     72.71350626	   -183.07322991	   -110.22881990	     -8.82581904	      2.84094205	     -4.95671464	      2.47842079	      0.03741186	      0.00115618	     -0.02344341	      0.00933612	     -0.00058173	      0.01486986	     -0.03741186	     -0.00115618	      0.02344341	     -0.00008731	      0.00112079	     -0.00008368	   -886.42739383	   -365.54581541	    314.61559659	     -8.24996865	     21.83122351	      2.29741521	    886.42739383	    365.54581541	   -314.61559659	    133.27688989	    -15.59158251	    357.21483987	   -289.25935732	   -129.15558363	    -77.94472269	      4.18382563	     -9.94434548	      0.95264145	    289.25935732	    129.15558363	     77.94472269	    -34.59008340	      7.08150665	    116.63128065	      0.84330009	      0.00000000	    964.14365704	    609.31991386	     24.28089293	     10.48905937	      0.00000000	      0.00000000	      0.00000000	      0.00000000	      0.00000000	      0.00000000	      0.00000001	      0.00000000
      0.20977303	      9.70792876	      7.14534289	      7.67061548	      3.32047976	      3.89715524	      4.10441772	      0.00000000	    163.72485208	    181.78651492	    341.25446364	    122.30744953	      7.09855033	      5.16079958	      3.67552983	      3.10694728	      5.16922089	      3.26842207	      2.79982485	     92.59514868	      4.61146059	      7.01253530	      5.25642000	     25.34272246	     16.01776596	      4.55113477	      3.29335595	      5.56894736	    114.01429835	     40.61839307	   6041.04652759	     56.18197850	      0.00000000	      0.00000000	      0.00000000	      0.00000000	      0.00000000	      0.00000000	     35.32989837	      1.53274431	      3.45701268	     23.39147382	     49.25921574	     11.72824971	      9.70792876	      7.14534289	      7.67061548	      3.32047976	      3.89715524	      4.10441772	     10.59011872	      5.24017826	     10.25415768	      9.05700621	      1.89590758	      7.09855033	      5.16079958	      3.67552983	      3.10694728	      5.16922089	      4.82883862	      2.79982485	      1.95207265	      4.61146059	      7.01253530	      5.25642000	     25.34272246	     16.01776596	      4.55113477	      3.29335595	      5.56894736	     14.19152738	      0.00000000	      0.00000000	      0.00000000	     19.32045478	      9.02532923	     42.95140283	     47.26245255	      4.17059476	      3.63243376	     11.12019030	      5.88376150	     15.82144027	      2.47771692	      7.86760763	      2.52002028	     31.24410211	     31.24410211	     11.46645489	     11.46645489	     29.02313251	     29.02313251	    178.13595539	    110.46022751	     10.12235926	     -6.56696489	      4.14244748	     70.71108060	   -178.13595539	   -110.46022751	    -10.12235926	      2.86071128	     -4.87810194	      2.54037840	      0.03610325	      0.00124958	     -0.02265711	      0.00902431	     -0.00056167	      0.01434855	     -0.03610325	     -0.00124958	      0.02265711	     -0.00008532	      0.00108281	     -0.00007587	   -884.54020616	   -367.93654126	    313.08024454	     -8.25431019	     21.75126531	      2.41731320	    884.54020616	    367.93654126	   -313.08024454	    132.68261940	    -15.54833263	    356.41761756	   -288.53424135	   -130.10079166	    -78.49486294	      4.21389989	     -9.94955755	      1.00243518	    288.53424135	    130.10079166	     78.49486294	    -34.83480017	      7.07351654	    116.32184693	      0.45439099	      0.00000000	    965.25701071	    612.23839947	     25.30184736	     11.76474359	      0.00000000	      0.00000000	      0.00000000	      0.00000000	      0.00000000	      0.00000000	      0.00000001	      0.00000000
